<svg width="18" height="18" viewBox="0 0 18 18" fill="none" xmlns="http://www.w3.org/2000/svg">
<path d="M12.4219 5.57812C12.7031 5.85938 13.0625 6 13.5 6C13.9375 6 14.2969 5.85938 14.5781 5.57812C14.8594 5.29688 15 4.9375 15 4.5C15 4.0625 14.8594 3.70312 14.5781 3.42188C14.2969 3.14062 13.9375 3 13.5 3C13.0625 3 12.7031 3.14062 12.4219 3.42188C12.1406 3.70312 12 4.0625 12 4.5C12 4.9375 12.1406 5.29688 12.4219 5.57812ZM12.4219 14.5781C12.7031 14.8594 13.0625 15 13.5 15C13.9375 15 14.2969 14.8594 14.5781 14.5781C14.8594 14.2969 15 13.9375 15 13.5C15 13.0625 14.8594 12.7031 14.5781 12.4219C14.2969 12.1406 13.9375 12 13.5 12C13.0625 12 12.7031 12.1406 12.4219 12.4219C12.1406 12.7031 12 13.0625 12 13.5C12 13.9375 12.1406 14.2969 12.4219 14.5781ZM7.92188 10.0781C8.20312 10.3594 8.5625 10.5 9 10.5C9.4375 10.5 9.79688 10.3594 10.0781 10.0781C10.3594 9.79688 10.5 9.4375 10.5 9C10.5 8.5625 10.3594 8.20312 10.0781 7.92188C9.79688 7.64062 9.4375 7.5 9 7.5C8.5625 7.5 8.20312 7.64062 7.92188 7.92188C7.64062 8.20312 7.5 8.5625 7.5 9C7.5 9.4375 7.64062 9.79688 7.92188 10.0781ZM3.42188 5.57812C3.70312 5.85938 4.0625 6 4.5 6C4.9375 6 5.29688 5.85938 5.57812 5.57812C5.85938 5.29688 6 4.9375 6 4.5C6 4.0625 5.85938 3.70312 5.57812 3.42188C5.29688 3.14062 4.9375 3 4.5 3C4.0625 3 3.70312 3.14062 3.42188 3.42188C3.14062 3.70312 3 4.0625 3 4.5C3 4.9375 3.14062 5.29688 3.42188 5.57812ZM3.42188 14.5781C3.70312 14.8594 4.0625 15 4.5 15C4.9375 15 5.29688 14.8594 5.57812 14.5781C5.85938 14.2969 6 13.9375 6 13.5C6 13.0625 5.85938 12.7031 5.57812 12.4219C5.29688 12.1406 4.9375 12 4.5 12C4.0625 12 3.70312 12.1406 3.42188 12.4219C3.14062 12.7031 3 13.0625 3 13.5C3 13.9375 3.14062 14.2969 3.42188 14.5781ZM15.9844 0C16.5156 0 16.9844 0.203125 17.3906 0.609375C17.7969 1.01563 18 1.48438 18 2.01562V15.9844C18 16.5156 17.7969 16.9844 17.3906 17.3906C16.9844 17.7969 16.5156 18 15.9844 18H2.01562C1.48438 18 1.01562 17.7969 0.609375 17.3906C0.203125 16.9844 0 16.5156 0 15.9844V2.01562C0 1.48438 0.203125 1.01563 0.609375 0.609375C1.01562 0.203125 1.48438 0 2.01562 0H15.9844Z" fill="white"/>
</svg>
